<svg width="82" height="82" viewBox="0 0 82 82" fill="none" xmlns="http://www.w3.org/2000/svg">
<mask id="path-1-inside-1_1_15" fill="white">
<path fill-rule="evenodd" clip-rule="evenodd" d="M79.5743 54.9261C81.1442 50.5783 82 45.8891 82 41C82 39.7977 81.9482 38.6074 81.8468 37.4314L77.8956 37.5004C77.4702 34.3766 75.9245 31.9728 73.2583 30.289C70.5922 28.6052 67.3439 27.7967 63.5135 27.8635C60.7128 27.9124 58.2701 28.4082 56.1854 29.351C55.4332 29.6945 54.7419 30.082 54.1116 30.5136C54.2399 31.5936 54.304 32.7075 54.304 33.8551C54.304 37.7229 53.5757 41.1872 52.1193 44.2481C52.7372 44.8671 53.4369 45.413 54.2183 45.8857C55.5088 46.646 56.8587 47.2713 58.268 47.7617C59.677 48.2315 60.9711 48.6106 62.1503 48.899L68.6057 50.5167C70.2607 50.9204 72.104 51.4857 74.1354 52.2124C76.0227 52.8804 77.8356 53.785 79.5743 54.9261ZM76.4568 61.6002C72.1036 69.0768 65.4533 75.0512 57.4728 78.5565C57.3076 78.5083 57.1433 78.4581 56.9799 78.4057C55.6849 77.9747 54.5189 77.4027 53.4818 76.6898L40.9878 53.8833C41.9962 53.5401 42.9432 53.1398 43.8288 52.6825C45.2628 51.9328 46.5472 51.0694 47.682 50.0925C50.5099 52.3299 54.1749 54.0535 58.6771 55.2632L66.5002 57.3514C68.7351 57.9304 70.8173 58.615 72.7469 59.4053C74.1878 59.9955 75.4245 60.7271 76.4568 61.6002ZM46.2029 81.673C44.499 81.8888 42.7625 82 41 82C30.958 82 21.7592 78.3898 14.6307 72.3964V55.4318H30.2216C30.839 55.4318 31.4441 55.4204 32.0369 55.3974L42.2969 74.428C42.7985 75.7169 43.4497 76.9248 44.2506 78.0518L46.2029 81.673ZM5.99999 62.3654C2.19375 56.1435 0 48.8279 0 41C0 33.1721 2.19375 25.8565 5.99999 19.6346V62.3654ZM12.0172 12H30.0824C35.6506 12 40.2211 12.9512 43.794 14.8537C47.3669 16.733 50.0118 19.3198 51.7287 22.6143C51.9146 22.9712 52.0905 23.3333 52.2564 23.7008C52.4077 23.6255 52.5605 23.5515 52.7149 23.4789C55.9633 21.939 59.6057 21.1338 63.642 21.0634C67.7195 20.9922 71.3568 21.66 74.5537 23.0668C76.2318 23.7945 77.7308 24.6729 79.0508 25.7021C72.9879 10.6356 58.236 0 41 0C29.6826 0 19.4361 4.58553 12.0172 12ZM44.2116 26.3729C44.683 27.3156 45.0503 28.3285 45.3135 29.4116C45.2202 29.5373 45.1285 29.6644 45.0384 29.7928C43.1692 32.4622 42.2655 35.5679 42.3273 39.11C42.3527 40.5635 42.544 41.9194 42.9013 43.1779C41.9235 44.3066 40.6666 45.2359 39.1307 45.9659C36.8106 47.0795 33.7481 47.6364 29.9432 47.6364H14.6307V19.6562H29.804C33.6553 19.6562 36.7526 20.2479 39.0959 21.4311C41.4392 22.5911 43.1444 24.2384 44.2116 26.3729Z"/>
</mask>
<path fill-rule="evenodd" clip-rule="evenodd" d="M79.5743 54.9261C81.1442 50.5783 82 45.8891 82 41C82 39.7977 81.9482 38.6074 81.8468 37.4314L77.8956 37.5004C77.4702 34.3766 75.9245 31.9728 73.2583 30.289C70.5922 28.6052 67.3439 27.7967 63.5135 27.8635C60.7128 27.9124 58.2701 28.4082 56.1854 29.351C55.4332 29.6945 54.7419 30.082 54.1116 30.5136C54.2399 31.5936 54.304 32.7075 54.304 33.8551C54.304 37.7229 53.5757 41.1872 52.1193 44.2481C52.7372 44.8671 53.4369 45.413 54.2183 45.8857C55.5088 46.646 56.8587 47.2713 58.268 47.7617C59.677 48.2315 60.9711 48.6106 62.1503 48.899L68.6057 50.5167C70.2607 50.9204 72.104 51.4857 74.1354 52.2124C76.0227 52.8804 77.8356 53.785 79.5743 54.9261ZM76.4568 61.6002C72.1036 69.0768 65.4533 75.0512 57.4728 78.5565C57.3076 78.5083 57.1433 78.4581 56.9799 78.4057C55.6849 77.9747 54.5189 77.4027 53.4818 76.6898L40.9878 53.8833C41.9962 53.5401 42.9432 53.1398 43.8288 52.6825C45.2628 51.9328 46.5472 51.0694 47.682 50.0925C50.5099 52.3299 54.1749 54.0535 58.6771 55.2632L66.5002 57.3514C68.7351 57.9304 70.8173 58.615 72.7469 59.4053C74.1878 59.9955 75.4245 60.7271 76.4568 61.6002ZM46.2029 81.673C44.499 81.8888 42.7625 82 41 82C30.958 82 21.7592 78.3898 14.6307 72.3964V55.4318H30.2216C30.839 55.4318 31.4441 55.4204 32.0369 55.3974L42.2969 74.428C42.7985 75.7169 43.4497 76.9248 44.2506 78.0518L46.2029 81.673ZM5.99999 62.3654C2.19375 56.1435 0 48.8279 0 41C0 33.1721 2.19375 25.8565 5.99999 19.6346V62.3654ZM12.0172 12H30.0824C35.6506 12 40.2211 12.9512 43.794 14.8537C47.3669 16.733 50.0118 19.3198 51.7287 22.6143C51.9146 22.9712 52.0905 23.3333 52.2564 23.7008C52.4077 23.6255 52.5605 23.5515 52.7149 23.4789C55.9633 21.939 59.6057 21.1338 63.642 21.0634C67.7195 20.9922 71.3568 21.66 74.5537 23.0668C76.2318 23.7945 77.7308 24.6729 79.0508 25.7021C72.9879 10.6356 58.236 0 41 0C29.6826 0 19.4361 4.58553 12.0172 12ZM44.2116 26.3729C44.683 27.3156 45.0503 28.3285 45.3135 29.4116C45.2202 29.5373 45.1285 29.6644 45.0384 29.7928C43.1692 32.4622 42.2655 35.5679 42.3273 39.11C42.3527 40.5635 42.544 41.9194 42.9013 43.1779C41.9235 44.3066 40.6666 45.2359 39.1307 45.9659C36.8106 47.0795 33.7481 47.6364 29.9432 47.6364H14.6307V19.6562H29.804C33.6553 19.6562 36.7526 20.2479 39.0959 21.4311C41.4392 22.5911 43.1444 24.2384 44.2116 26.3729Z" fill="#EB455F"/>
<path d="M79.5743 54.9261L76.831 59.1063L82.1261 62.5814L84.2772 56.6242L79.5743 54.9261ZM81.8468 37.4314L86.8284 37.0019L86.4273 32.3507L81.7596 32.4322L81.8468 37.4314ZM77.8956 37.5004L72.9413 38.1749L73.5407 42.5771L77.9828 42.4996L77.8956 37.5004ZM73.2583 30.289L70.5884 34.5165L70.5884 34.5165L73.2583 30.289ZM63.5135 27.8635L63.4263 22.8643L63.4263 22.8643L63.5135 27.8635ZM56.1854 29.351L54.1251 24.7952L54.1169 24.7989L54.1088 24.8027L56.1854 29.351ZM54.1116 30.5136L51.2867 26.388L48.7897 28.0978L49.1465 31.103L54.1116 30.5136ZM52.1193 44.2481L47.6044 42.0997L46.089 45.2843L48.5805 47.7804L52.1193 44.2481ZM54.2183 45.8857L51.6304 50.1639L51.6553 50.1789L51.6803 50.1937L54.2183 45.8857ZM58.268 47.7617L56.6249 52.484L56.6556 52.4947L56.6865 52.505L58.268 47.7617ZM62.1503 48.899L63.3658 44.049L63.352 44.0456L63.3382 44.0422L62.1503 48.899ZM68.6057 50.5167L67.3903 55.3668L67.4055 55.3706L67.4208 55.3743L68.6057 50.5167ZM74.1354 52.2124L72.4512 56.9202L72.4591 56.923L72.467 56.9258L74.1354 52.2124ZM76.4568 61.6002L80.7777 64.116L82.8884 60.491L79.6855 57.7823L76.4568 61.6002ZM57.4728 78.5565L56.0723 83.3564L57.8183 83.8659L59.4836 83.1344L57.4728 78.5565ZM56.9799 78.4057L55.4007 83.1498L55.4277 83.1588L55.4548 83.1675L56.9799 78.4057ZM53.4818 76.6898L49.0967 79.0921L49.6686 80.1361L50.6496 80.8103L53.4818 76.6898ZM40.9878 53.8833L39.3768 49.1499L33.7438 51.067L36.6027 56.2855L40.9878 53.8833ZM43.8288 52.6825L46.1228 57.1252L46.1342 57.1193L46.1456 57.1134L43.8288 52.6825ZM47.682 50.0925L50.7845 46.1714L47.5479 43.6105L44.42 46.3031L47.682 50.0925ZM58.6771 55.2632L57.3796 60.0919L57.3876 60.0941L58.6771 55.2632ZM66.5002 57.3514L65.2107 62.1823L65.2285 62.187L65.2463 62.1916L66.5002 57.3514ZM72.7469 59.4053L74.642 54.7784L74.642 54.7784L72.7469 59.4053ZM46.2029 81.673L46.8311 86.6334L54.0637 85.7174L50.604 79.3002L46.2029 81.673ZM14.6307 72.3964H9.63068V74.725L11.413 76.2235L14.6307 72.3964ZM14.6307 55.4318V50.4318H9.63068V55.4318H14.6307ZM32.0369 55.3974L36.438 53.0247L34.9587 50.2807L31.8438 50.4012L32.0369 55.3974ZM42.2969 74.428L46.9565 72.6146L46.8445 72.3269L46.698 72.0552L42.2969 74.428ZM44.2506 78.0518L48.6517 75.679L48.5051 75.4071L48.3262 75.1554L44.2506 78.0518ZM5.99999 62.3654L1.73479 64.9747L11 80.1201L11 62.3654H5.99999ZM5.99999 19.6346H11V1.87985L1.73479 17.0253L5.99999 19.6346ZM12.0172 12L8.48276 8.46342L-0.058868 17H12.0172V12ZM43.794 14.8537L41.4441 19.267L41.4553 19.273L41.4665 19.2789L43.794 14.8537ZM51.7287 22.6143L47.2946 24.925L47.2946 24.925L51.7287 22.6143ZM52.2564 23.7008L47.6989 25.7574L49.835 30.4911L54.4843 28.177L52.2564 23.7008ZM52.7149 23.4789L54.8436 28.0031L54.8501 28L54.8566 27.997L52.7149 23.4789ZM63.642 21.0634L63.7293 26.0626L63.7293 26.0626L63.642 21.0634ZM74.5537 23.0668L72.5398 27.6433L72.5521 27.6487L72.5644 27.654L74.5537 23.0668ZM79.0508 25.7021L75.9765 29.6453L90.6224 41.0641L83.6894 23.8355L79.0508 25.7021ZM45.3135 29.4116L49.3299 32.3895L50.7253 30.5076L50.1721 28.231L45.3135 29.4116ZM44.2116 26.3729L39.7395 28.6089L39.7395 28.6089L44.2116 26.3729ZM45.0384 29.7928L40.9466 26.9192L40.9426 26.9249L45.0384 29.7928ZM42.3273 39.11L37.3281 39.1973L37.3281 39.1973L42.3273 39.11ZM42.9013 43.1779L46.6805 46.4517L48.4487 44.4105L47.7112 41.8125L42.9013 43.1779ZM39.1307 45.9659L36.9845 41.4499L36.9757 41.4541L36.967 41.4583L39.1307 45.9659ZM14.6307 47.6364H9.63068V52.6364H14.6307V47.6364ZM14.6307 19.6562V14.6562H9.63068V19.6562H14.6307ZM39.0959 21.4311L36.8421 25.8944L36.8598 25.9033L36.8776 25.9121L39.0959 21.4311ZM77 41C77 45.3019 76.2476 49.417 74.8715 53.228L84.2772 56.6242C86.0409 51.7397 87 46.4763 87 41H77ZM76.8653 37.8609C76.9544 38.8943 77 39.9412 77 41H87C87 39.6541 86.9421 38.3206 86.8284 37.0019L76.8653 37.8609ZM77.9828 42.4996L81.9341 42.4306L81.7596 32.4322L77.8083 32.5011L77.9828 42.4996ZM70.5884 34.5165C72.0061 35.4118 72.7153 36.5152 72.9413 38.1749L82.8499 36.8258C82.2252 32.238 79.8429 28.5339 75.9283 26.0615L70.5884 34.5165ZM63.6008 32.8628C66.6679 32.8092 68.9087 33.4556 70.5884 34.5165L75.9283 26.0615C72.2757 23.7547 68.0199 22.7841 63.4263 22.8643L63.6008 32.8628ZM58.2457 33.9068C59.5872 33.3001 61.3323 32.9024 63.6008 32.8628L63.4263 22.8643C60.0934 22.9225 56.9531 23.5164 54.1251 24.7952L58.2457 33.9068ZM56.9365 34.6391C57.3115 34.3823 57.7497 34.1333 58.2621 33.8994L54.1088 24.8027C53.1167 25.2556 52.1723 25.7816 51.2867 26.388L56.9365 34.6391ZM59.304 33.8551C59.304 32.5212 59.2295 31.2102 59.0768 29.9241L49.1465 31.103C49.2503 31.9771 49.304 32.8937 49.304 33.8551H59.304ZM56.6342 46.3964C58.4523 42.5757 59.304 38.3612 59.304 33.8551H49.304C49.304 37.0846 48.6992 39.7988 47.6044 42.0997L56.6342 46.3964ZM56.8063 41.6076C56.3555 41.3349 55.978 41.0363 55.658 40.7158L48.5805 47.7804C49.4964 48.6979 50.5183 49.4911 51.6304 50.1639L56.8063 41.6076ZM59.9112 43.0394C58.8142 42.6577 57.764 42.1714 56.7564 41.5778L51.6803 50.1937C53.2536 51.1206 54.9032 51.8849 56.6249 52.484L59.9112 43.0394ZM63.3382 44.0422C62.3171 43.7925 61.1564 43.4542 59.8496 43.0185L56.6865 52.505C58.1977 53.0089 59.6252 53.4288 60.9625 53.7559L63.3382 44.0422ZM69.8211 45.6667L63.3658 44.049L60.9349 53.7491L67.3903 55.3668L69.8211 45.6667ZM75.8196 47.5046C73.6653 46.7339 71.652 46.1132 69.7906 45.6592L67.4208 55.3743C68.8694 55.7277 70.5426 56.2374 72.4512 56.9202L75.8196 47.5046ZM82.3177 50.7459C80.2565 49.3931 78.084 48.3061 75.8038 47.499L72.467 56.9258C73.9614 57.4548 75.4148 58.1769 76.831 59.1063L82.3177 50.7459ZM72.1359 59.0843C68.3112 65.653 62.4667 70.9019 55.462 73.9787L59.4836 83.1344C68.4399 79.2004 75.8959 72.5005 80.7777 64.116L72.1359 59.0843ZM55.4548 83.1675C55.6596 83.2331 55.8655 83.296 56.0723 83.3564L58.8734 73.7567C58.7498 73.7206 58.627 73.6831 58.5049 73.644L55.4548 83.1675ZM50.6496 80.8103C52.1042 81.8102 53.6982 82.5831 55.4007 83.1498L58.5591 73.6617C57.6716 73.3663 56.9336 72.9952 56.314 72.5693L50.6496 80.8103ZM36.6027 56.2855L49.0967 79.0921L57.8669 74.2876L45.3729 51.481L36.6027 56.2855ZM41.5349 48.2398C40.8838 48.576 40.1666 48.8811 39.3768 49.1499L42.5987 58.6166C43.8258 58.199 45.0026 57.7037 46.1228 57.1252L41.5349 48.2398ZM44.42 46.3031C43.5969 47.0117 42.6344 47.6648 41.5121 48.2517L46.1456 57.1134C47.8911 56.2007 49.4975 55.1271 50.9441 53.8818L44.42 46.3031ZM59.9745 50.4345C55.9453 49.3518 52.947 47.8824 50.7845 46.1714L44.5796 54.0135C48.0727 56.7773 52.4045 58.7551 57.3796 60.0919L59.9745 50.4345ZM67.7897 52.5206L59.9666 50.4323L57.3876 60.0941L65.2107 62.1823L67.7897 52.5206ZM74.642 54.7784C72.483 53.8941 70.1845 53.1408 67.7542 52.5112L65.2463 62.1916C67.2857 62.72 69.1517 63.3359 70.8518 64.0323L74.642 54.7784ZM79.6855 57.7823C78.1983 56.5247 76.4951 55.5374 74.642 54.7784L70.8518 64.0323C71.8806 64.4537 72.6506 64.9296 73.2281 65.418L79.6855 57.7823ZM45.5747 76.7126C44.0786 76.9021 42.5519 77 41 77V87C42.973 87 44.9193 86.8755 46.8311 86.6334L45.5747 76.7126ZM41 77C32.1784 77 24.1095 73.8334 17.8483 68.5693L11.413 76.2235C19.4088 82.9461 29.7375 87 41 87V77ZM19.6307 72.3964V55.4318H9.63068V72.3964H19.6307ZM14.6307 60.4318H30.2216V50.4318H14.6307V60.4318ZM30.2216 60.4318C30.9008 60.4318 31.5704 60.4192 32.2301 60.3937L31.8438 50.4012C31.3179 50.4215 30.7773 50.4318 30.2216 50.4318V60.4318ZM27.6358 57.7702L37.8957 76.8007L46.698 72.0552L36.438 53.0247L27.6358 57.7702ZM37.6373 76.2413C38.2881 77.9138 39.1355 79.4855 40.1749 80.9482L48.3262 75.1554C47.7639 74.3642 47.3088 73.52 46.9565 72.6146L37.6373 76.2413ZM39.8494 80.4246L41.8018 84.0458L50.604 79.3002L48.6517 75.679L39.8494 80.4246ZM10.2652 59.7562C6.92577 54.2974 5 47.8812 5 41H-5C-5 49.7747 -2.53827 57.9896 1.73479 64.9747L10.2652 59.7562ZM5 41C5 34.1188 6.92576 27.7026 10.2652 22.2438L1.73479 17.0253C-2.53827 24.0104 -5 32.2253 -5 41H5ZM0.999995 19.6346V62.3654H11V19.6346H0.999995ZM30.0824 7H12.0172V17H30.0824V7ZM46.144 10.4403C41.6274 8.03539 36.1777 7 30.0824 7V17C35.1234 17 38.8148 17.8671 41.4441 19.267L46.144 10.4403ZM56.1627 20.3037C53.9343 16.0275 50.5136 12.7386 46.1216 10.4285L41.4665 19.2789C44.2203 20.7273 46.0894 22.6122 47.2946 24.925L56.1627 20.3037ZM56.8138 21.6442C56.6093 21.1911 56.3923 20.7442 56.1627 20.3037L47.2946 24.925C47.437 25.1982 47.5717 25.4756 47.6989 25.7574L56.8138 21.6442ZM50.5861 18.9547C50.3988 19.0428 50.2129 19.1328 50.0284 19.2246L54.4843 28.177C54.6024 28.1182 54.7222 28.0602 54.8436 28.0031L50.5861 18.9547ZM63.5548 16.0641C58.8949 16.1455 54.5392 17.0808 50.5731 18.9608L54.8566 27.997C57.3874 26.7972 60.3165 26.1222 63.7293 26.0626L63.5548 16.0641ZM76.5675 18.4903C72.6071 16.7476 68.2347 15.9824 63.5548 16.0641L63.7293 26.0626C67.2043 26.002 70.1064 26.5725 72.5398 27.6433L76.5675 18.4903ZM82.1252 21.7589C80.4429 20.4473 78.5729 19.3598 76.5429 18.4795L72.5644 27.654C73.8906 28.2291 75.0188 28.8985 75.9765 29.6453L82.1252 21.7589ZM41 5C56.1261 5 69.0851 14.3305 74.4123 27.5687L83.6894 23.8355C76.8906 6.94077 60.3458 -5 41 -5V5ZM15.5517 15.5366C22.0713 9.02085 31.0613 5 41 5V-5C28.3038 -5 16.8009 0.150203 8.48276 8.46342L15.5517 15.5366ZM50.1721 28.231C49.8252 26.8036 49.3326 25.4344 48.6838 24.1368L39.7395 28.6089C40.0335 29.1968 40.2754 29.8535 40.4549 30.5922L50.1721 28.231ZM49.1301 32.6664C49.1956 32.5731 49.2622 32.4808 49.3299 32.3895L41.297 26.4336C41.1783 26.5938 41.0614 26.7557 40.9466 26.9192L49.1301 32.6664ZM47.3266 39.0227C47.2815 36.4394 47.9239 34.3889 49.1341 32.6607L40.9426 26.9249C38.4144 30.5354 37.2495 34.6964 37.3281 39.1973L47.3266 39.0227ZM47.7112 41.8125C47.4843 41.0133 47.3452 40.0911 47.3266 39.0227L37.3281 39.1973C37.3602 41.0358 37.6037 42.8255 38.0913 44.5433L47.7112 41.8125ZM41.2769 50.4819C43.3508 49.4962 45.1914 48.1707 46.6805 46.4517L39.122 39.9041C38.6556 40.4426 37.9825 40.9756 36.9845 41.4499L41.2769 50.4819ZM29.9432 52.6364C34.168 52.6364 38.0546 52.0286 41.2943 50.4735L36.967 41.4583C35.5666 42.1305 33.3282 42.6364 29.9432 42.6364V52.6364ZM14.6307 52.6364H29.9432V42.6364H14.6307V52.6364ZM9.63068 19.6562V47.6364H19.6307V19.6562H9.63068ZM29.804 14.6562H14.6307V24.6562H29.804V14.6562ZM41.3496 16.9678C38.058 15.3057 34.1003 14.6562 29.804 14.6562V24.6562C33.2103 24.6562 35.4472 25.19 36.8421 25.8944L41.3496 16.9678ZM48.6838 24.1368C47.0826 20.9345 44.5344 18.5443 41.3142 16.9501L36.8776 25.9121C38.3439 26.638 39.2062 27.5423 39.7395 28.6089L48.6838 24.1368Z" fill="#EB455F" mask="url(#path-1-inside-1_1_15)"/>
</svg>
